<?xml version="1.0" encoding="utf-8"?>
<svg viewBox="0 0 800 800" xmlns="http://www.w3.org/2000/svg">
  <g transform="matrix(29.621698379516605, 0, 0, 29.64970397949219, 41.113498687744155, 64.43017578125001)" style="">
    <defs/>
    <path d="M 10.55 2.532 C 11.387 1.825 12.613 1.825 13.451 2.532 L 20.201 8.224 C 20.707 8.652 21 9.281 21 9.944 L 21 19.254 C 21 20.22 20.217 21.004 19.25 21.004 L 15.75 21.004 C 14.784 21.004 14 20.22 14 19.254 L 14 14.247 C 14 14.109 13.888 13.997 13.75 13.997 L 10.25 13.997 C 10.112 13.997 10 14.109 10 14.247 L 10 19.254 C 10 20.22 9.217 21.004 8.25 21.004 L 4.75 21.004 C 3.784 21.004 3 20.22 3 19.254 L 3 9.944 C 3 9.281 3.293 8.652 3.8 8.224 L 10.55 2.532 Z" fill="#212121"/>
  </g>
</svg>